<svg width="34" height="37" viewBox="0 0 34 37" fill="none" xmlns="http://www.w3.org/2000/svg">
<path d="M31.511 6.53118C29.1336 4.15369 26.1044 2.5346 22.8068 1.87865C19.5091 1.2227 16.091 1.55935 12.9846 2.84604C9.87827 4.13273 7.22324 6.31166 5.35525 9.1073C3.48727 11.9029 2.49023 15.1897 2.49023 18.552C2.49023 21.9143 3.48727 25.2011 5.35525 27.9967C7.22323 30.7923 9.87827 32.9713 12.9846 34.2579C16.091 35.5446 19.5091 35.8813 22.8068 35.2253C26.1044 34.5694 29.1336 32.9503 31.511 30.5728" stroke="#EEE6EE" stroke-width="2.5"/>
<path d="M7.46942 6.53119C5.89082 8.10978 4.63861 9.98385 3.78428 12.0464C2.92995 14.1089 2.49023 16.3195 2.49023 18.552C2.49023 20.7845 2.92995 22.9951 3.78428 25.0576C4.63861 27.1202 5.89082 28.9942 7.46942 30.5728C9.04801 32.1514 10.9221 33.4036 12.9846 34.258C15.0472 35.1123 17.2578 35.552 19.4902 35.552C21.7227 35.552 23.9333 35.1123 25.9959 34.258C28.0584 33.4036 29.9325 32.1514 31.511 30.5728" stroke="#FF9E0C" stroke-width="2.5"/>
<path d="M9.46298 23.5V22.436L12.921 18.908C13.845 17.984 14.307 17.1907 14.307 16.528C14.307 15.9773 14.139 15.548 13.803 15.24C13.467 14.932 13.0563 14.778 12.571 14.778C11.647 14.778 10.975 15.2167 10.555 16.094L9.46298 15.45C9.77098 14.8153 10.1957 14.3347 10.737 14.008C11.2877 13.6813 11.8943 13.518 12.557 13.518C13.3783 13.518 14.0923 13.7887 14.699 14.33C15.3057 14.8713 15.609 15.5993 15.609 16.514C15.609 17.5033 15.0257 18.5813 13.859 19.748L11.353 22.24H15.791V23.5H9.46298ZM23.8517 20.42V21.638H22.6617V23.5H21.3597V21.638H16.3617V20.42L19.8757 13.7H21.2757L17.7617 20.42H21.3597V17.648H22.6617V20.42H23.8517Z" fill="black"/>
</svg>
