<svg width="35" height="37" viewBox="0 0 35 37" fill="none" xmlns="http://www.w3.org/2000/svg">
<path d="M31.552 6.48958C29.1745 4.11209 26.1454 2.493 22.8477 1.83705C19.55 1.1811 16.1319 1.51776 13.0256 2.80445C9.91923 4.09114 7.26419 6.27007 5.39621 9.0657C3.52822 11.8613 2.53119 15.1481 2.53119 18.5104C2.53119 21.8727 3.52822 25.1595 5.39621 27.9551C7.26419 30.7507 9.91923 32.9297 13.0256 34.2164C16.1319 35.503 19.55 35.8397 22.8477 35.1837C26.1454 34.5278 29.1745 32.9087 31.552 30.5312" stroke="#EEE6EE" stroke-width="2.5"/>
<path d="M7.51037 6.48959C5.93178 8.06819 4.67957 9.94225 3.82524 12.0048C2.97091 14.0673 2.53119 16.2779 2.53119 18.5104C2.53119 20.7429 2.97091 22.9535 3.82524 25.016C4.67957 27.0786 5.93178 28.9526 7.51037 30.5312C9.08897 32.1098 10.963 33.362 13.0256 34.2164C15.0881 35.0707 17.2987 35.5104 19.5312 35.5104C21.7637 35.5104 23.9743 35.0707 26.0368 34.2164C28.0993 33.362 29.9734 32.1098 31.552 30.5312" stroke="#940CFF" stroke-width="2.5"/>
<path d="M9.504 23.5V22.436L12.962 18.908C13.886 17.984 14.348 17.1907 14.348 16.528C14.348 15.9773 14.18 15.548 13.844 15.24C13.508 14.932 13.0973 14.778 12.612 14.778C11.688 14.778 11.016 15.2167 10.596 16.094L9.504 15.45C9.812 14.8153 10.2367 14.3347 10.778 14.008C11.3287 13.6813 11.9353 13.518 12.598 13.518C13.4193 13.518 14.1333 13.7887 14.74 14.33C15.3467 14.8713 15.65 15.5993 15.65 16.514C15.65 17.5033 15.0667 18.5813 13.9 19.748L11.394 22.24H15.832V23.5H9.504ZM23.8927 20.42V21.638H22.7027V23.5H21.4007V21.638H16.4027V20.42L19.9167 13.7H21.3167L17.8027 20.42H21.4007V17.648H22.7027V20.42H23.8927ZM31.3138 22.296C30.6511 23.22 29.7225 23.682 28.5278 23.682C27.3331 23.682 26.4045 23.22 25.7418 22.296C25.0791 21.372 24.7478 20.14 24.7478 18.6C24.7478 17.06 25.0791 15.828 25.7418 14.904C26.4045 13.98 27.3331 13.518 28.5278 13.518C29.7225 13.518 30.6511 13.98 31.3138 14.904C31.9765 15.828 32.3078 17.06 32.3078 18.6C32.3078 20.14 31.9765 21.372 31.3138 22.296ZM26.6938 21.414C27.1231 22.0767 27.7345 22.408 28.5278 22.408C29.3211 22.408 29.9325 22.0767 30.3618 21.414C30.8005 20.7513 31.0198 19.8133 31.0198 18.6C31.0198 17.3867 30.8005 16.4487 30.3618 15.786C29.9325 15.114 29.3211 14.778 28.5278 14.778C27.7345 14.778 27.1231 15.1093 26.6938 15.772C26.2645 16.4347 26.0498 17.3773 26.0498 18.6C26.0498 19.8133 26.2645 20.7513 26.6938 21.414Z" fill="black"/>
</svg>
