<svg width="34" height="37" viewBox="0 0 34 37" fill="none" xmlns="http://www.w3.org/2000/svg">
<path d="M31.511 6.48955C29.1336 4.11206 26.1044 2.49297 22.8068 1.83702C19.5091 1.18107 16.091 1.51773 12.9846 2.80442C9.87827 4.09111 7.22324 6.27004 5.35525 9.06567C3.48727 11.8613 2.49023 15.1481 2.49023 18.5104C2.49023 21.8727 3.48727 25.1594 5.35525 27.9551C7.22323 30.7507 9.87827 32.9296 12.9846 34.2163C16.091 35.503 19.5091 35.8397 22.8068 35.1837C26.1044 34.5278 29.1336 32.9087 31.511 30.5312" stroke="#EEE6EE" stroke-width="2.5"/>
<path d="M7.46942 6.48956C5.89082 8.06816 4.63861 9.94222 3.78428 12.0048C2.92995 14.0673 2.49023 16.2779 2.49023 18.5104C2.49023 20.7428 2.92995 22.9535 3.78428 25.016C4.63861 27.0785 5.89082 28.9526 7.46942 30.5312C9.04801 32.1098 10.9221 33.362 12.9846 34.2163C15.0472 35.0707 17.2578 35.5104 19.4902 35.5104C21.7227 35.5104 23.9333 35.0707 25.9959 34.2163C28.0584 33.362 29.9325 32.1098 31.511 30.5312" stroke="#FF0C0C" stroke-width="2.5"/>
<path d="M16.785 20.3784V21.5964H15.595V23.4584H14.293V21.5964H9.29498V20.3784L12.809 13.6584H14.209L10.695 20.3784H14.293V17.6064H15.595V20.3784H16.785ZM24.2061 22.2544C23.5434 23.1784 22.6147 23.6404 21.4201 23.6404C20.2254 23.6404 19.2967 23.1784 18.6341 22.2544C17.9714 21.3304 17.6401 20.0984 17.6401 18.5584C17.6401 17.0184 17.9714 15.7864 18.6341 14.8624C19.2967 13.9384 20.2254 13.4764 21.4201 13.4764C22.6147 13.4764 23.5434 13.9384 24.2061 14.8624C24.8687 15.7864 25.2001 17.0184 25.2001 18.5584C25.2001 20.0984 24.8687 21.3304 24.2061 22.2544ZM19.5861 21.3724C20.0154 22.035 20.6267 22.3664 21.4201 22.3664C22.2134 22.3664 22.8247 22.035 23.2541 21.3724C23.6927 20.7097 23.9121 19.7717 23.9121 18.5584C23.9121 17.345 23.6927 16.407 23.2541 15.7444C22.8247 15.0724 22.2134 14.7364 21.4201 14.7364C20.6267 14.7364 20.0154 15.0677 19.5861 15.7304C19.1567 16.393 18.9421 17.3357 18.9421 18.5584C18.9421 19.7717 19.1567 20.7097 19.5861 21.3724Z" fill="black"/>
</svg>
