<svg width="34" height="37" viewBox="0 0 34 37" fill="none" xmlns="http://www.w3.org/2000/svg">
<path d="M31.5101 6.48955C29.1326 4.11206 26.1035 2.49297 22.8058 1.83702C19.5081 1.18107 16.09 1.51773 12.9836 2.80442C9.8773 4.09111 7.22226 6.27004 5.35427 9.06567C3.48629 11.8613 2.48926 15.1481 2.48926 18.5104C2.48926 21.8727 3.48629 25.1594 5.35427 27.9551C7.22226 30.7507 9.8773 32.9296 12.9836 34.2163C16.09 35.503 19.5081 35.8397 22.8058 35.1837C26.1035 34.5278 29.1326 32.9087 31.5101 30.5312" stroke="#EEE6EE" stroke-width="2.5"/>
<path d="M7.46844 6.48956C5.88985 8.06816 4.63764 9.94222 3.78331 12.0048C2.92898 14.0673 2.48926 16.2779 2.48926 18.5104C2.48926 20.7428 2.92898 22.9535 3.78331 25.016C4.63764 27.0785 5.88985 28.9526 7.46844 30.5312C9.04704 32.1098 10.9211 33.362 12.9836 34.2163C15.0462 35.0707 17.2568 35.5104 19.4893 35.5104C21.7217 35.5104 23.9323 35.0707 25.9949 34.2163C28.0574 33.362 29.9315 32.1098 31.5101 30.5312" stroke="#FF0CC9" stroke-width="2.5"/>
<path d="M14.67 18.3904C15.146 18.633 15.5193 18.9597 15.79 19.3704C16.0607 19.781 16.196 20.2477 16.196 20.7704C16.196 21.6664 15.8833 22.371 15.258 22.8844C14.6327 23.3884 13.8253 23.6404 12.836 23.6404C11.856 23.6404 11.0533 23.3884 10.428 22.8844C9.80267 22.371 9.49001 21.6664 9.49001 20.7704C9.49001 20.2477 9.62534 19.781 9.89601 19.3704C10.1667 18.9597 10.54 18.633 11.016 18.3904C10.2133 17.8864 9.81201 17.1724 9.81201 16.2484C9.81201 15.3617 10.106 14.6804 10.694 14.2044C11.2913 13.719 12.0053 13.4764 12.836 13.4764C13.676 13.4764 14.39 13.719 14.978 14.2044C15.5753 14.6804 15.874 15.3617 15.874 16.2484C15.874 17.1724 15.4727 17.8864 14.67 18.3904ZM12.836 14.7224C12.3413 14.7224 11.926 14.853 11.59 15.1144C11.2633 15.3757 11.1 15.763 11.1 16.2764C11.1 16.771 11.268 17.1584 11.604 17.4384C11.94 17.709 12.3507 17.8444 12.836 17.8444C13.3213 17.8444 13.732 17.709 14.068 17.4384C14.404 17.1584 14.572 16.771 14.572 16.2764C14.572 15.763 14.4087 15.3757 14.082 15.1144C13.7553 14.853 13.34 14.7224 12.836 14.7224ZM12.836 22.3944C13.4613 22.3944 13.9607 22.2497 14.334 21.9604C14.7167 21.6617 14.908 21.237 14.908 20.6864C14.908 20.145 14.7167 19.7297 14.334 19.4404C13.9607 19.1417 13.4613 18.9924 12.836 18.9924C12.22 18.9924 11.7207 19.1417 11.338 19.4404C10.9647 19.7297 10.778 20.145 10.778 20.6864C10.778 21.237 10.9647 21.6617 11.338 21.9604C11.7207 22.2497 12.22 22.3944 12.836 22.3944ZM20.2969 17.4804C21.2209 17.4804 22.0002 17.7557 22.6349 18.3064C23.2789 18.8477 23.6009 19.599 23.6009 20.5604C23.6009 21.5124 23.2742 22.2637 22.6209 22.8144C21.9676 23.365 21.1742 23.6404 20.2409 23.6404C19.4942 23.6404 18.8269 23.463 18.2389 23.1084C17.6509 22.7444 17.2402 22.2217 17.0069 21.5404L18.1129 20.9104C18.2436 21.3864 18.4956 21.7504 18.8689 22.0024C19.2422 22.245 19.6996 22.3664 20.2409 22.3664C20.8569 22.3664 21.3562 22.2077 21.7389 21.8904C22.1216 21.573 22.3129 21.1297 22.3129 20.5604C22.3129 19.991 22.1216 19.5477 21.7389 19.2304C21.3562 18.9037 20.8662 18.7404 20.2689 18.7404H17.4969L17.8609 13.6584H23.2229V14.8764H19.0369L18.8689 17.4804H20.2969Z" fill="black"/>
</svg>
