<svg width="28" height="28" viewBox="0 0 28 28" fill="none" xmlns="http://www.w3.org/2000/svg">
<path d="M21.4249 18.1246L19.7748 16.4747L21.4249 14.8248C23.7029 12.5467 23.7029 8.85325 21.4249 6.5752C19.1467 4.29714 15.4533 4.29714 13.1752 6.5752L11.5253 8.22512L9.8754 6.5752L11.5253 4.92529C14.7147 1.736 19.8854 1.736 23.0748 4.92529C26.264 8.11457 26.264 13.2855 23.0748 16.4747L21.4249 18.1246ZM18.1249 21.4245L16.475 23.0744C13.2858 26.2637 8.11493 26.2637 4.92565 23.0744C1.73637 19.8851 1.73637 14.7143 4.92565 11.5249L6.57556 9.87503L8.22548 11.5249L6.57556 13.1749C4.29751 15.4529 4.29751 19.1464 6.57556 21.4245C8.85362 23.7025 12.5471 23.7025 14.8251 21.4245L16.475 19.7746L18.1249 21.4245ZM17.3 9.05007L18.9499 10.7L10.7003 18.9496L9.05044 17.2996L17.3 9.05007Z" fill="#1D072E"/>
</svg>
