<svg width="28" height="28" viewBox="0 0 28 28" fill="none" xmlns="http://www.w3.org/2000/svg">
<path d="M14.2847 4.66669C14.9078 4.67012 16.4668 4.68519 18.1233 4.75154L18.7106 4.77715C20.3783 4.85611 22.0447 4.991 22.8711 5.22144C23.9735 5.53113 24.84 6.43477 25.1328 7.58023C25.5992 9.39917 25.6575 12.9493 25.6647 13.8085L25.6658 13.9865V13.999C25.6658 13.999 25.6658 14.0033 25.6658 14.0116L25.6647 14.1896C25.6575 15.0487 25.5992 18.5989 25.1328 20.4179C24.8359 21.5675 23.9694 22.4712 22.8711 22.7766C22.0447 23.007 20.3783 23.1419 18.7106 23.2209L18.1233 23.2464C16.4668 23.3128 14.9078 23.3279 14.2847 23.3314L14.0112 23.3323H13.9991C13.9991 23.3323 13.995 23.3323 13.987 23.3323L13.7137 23.3314C12.3949 23.3241 6.88084 23.2645 5.12709 22.7766C4.0247 22.4669 3.15824 21.5633 2.86534 20.4179C2.39906 18.5989 2.34078 15.0487 2.3335 14.1896V13.8085C2.34078 12.9493 2.39906 9.39917 2.86534 7.58023C3.1623 6.43052 4.02876 5.52689 5.12709 5.22144C6.88084 4.73346 12.3949 4.67394 13.7137 4.66669H14.2847ZM11.6658 9.91568V18.0823L18.6658 13.999L11.6658 9.91568Z" fill="#1D072E"/>
</svg>
