<svg width="32" height="32" viewBox="0 0 32 32" fill="none" xmlns="http://www.w3.org/2000/svg">
<rect x="0.333333" y="0.333333" width="31.3333" height="31.3333" rx="15.6667" fill="#040404"/>
<rect x="0.333333" y="0.333333" width="31.3333" height="31.3333" rx="15.6667" stroke="#5B00A3" stroke-width="0.666667"/>
<path d="M18.6506 22.3284L18.6506 26.5684L11.9694 26.5684C10.8341 26.5684 9.91367 25.648 9.91367 24.5126L9.91367 18.0884L5.03125 18.0884L5.03125 13.8484L9.91367 13.8484L9.91367 9.60836L9.91367 7.42412C9.91367 6.28876 10.8341 5.36836 11.9694 5.36836L18.6506 5.36836L18.6506 9.60836L14.2822 9.60836L14.2822 13.8484L9.91367 13.8484L9.91367 18.0884L14.2822 18.0884L14.2822 22.3284L18.6506 22.3284Z" fill="white"/>
<path d="M9.91367 18.0884L14.2822 18.0884L14.2822 22.3284L18.6506 22.3284L18.6506 26.5684L11.9694 26.5684C10.8341 26.5684 9.91367 25.648 9.91367 24.5126L9.91367 18.0884ZM9.91367 18.0884L9.91367 13.8484M9.91367 18.0884L5.03125 18.0884L5.03125 13.8484L9.91367 13.8484M9.91367 13.8484L14.2822 13.8484L14.2822 9.60836L18.6506 9.60836L18.6506 5.36836L11.9694 5.36836C10.8341 5.36836 9.91367 6.28875 9.91367 7.42412L9.91367 9.60836L9.91367 13.8484Z" stroke="black" stroke-width="0.25697"/>
<path d="M18.6318 13.9285L18.6318 18.1685L25.313 18.1685C26.4484 18.1685 27.3688 17.2481 27.3688 16.1127L27.3688 9.68846L23.0003 9.68846L23.0003 13.9285L18.6318 13.9285Z" fill="white" stroke="black" stroke-width="0.25697"/>
</svg>
